<svg width="20" height="20" viewBox="0 0 20 20" fill="none" xmlns="http://www.w3.org/2000/svg">
<path fill-rule="evenodd" clip-rule="evenodd" d="M17.2908 4.57262C17.5073 4.78922 17.6289 5.08294 17.6289 5.38921C17.6289 5.69547 17.5073 5.9892 17.2908 6.20579L8.63364 14.8629C8.51924 14.9773 8.38341 15.0681 8.23392 15.13C8.08443 15.192 7.9242 15.2238 7.76239 15.2238C7.60058 15.2238 7.44035 15.192 7.29086 15.13C7.14137 15.0681 7.00554 14.9773 6.89113 14.8629L2.58991 10.5625C2.4796 10.4559 2.39161 10.3285 2.33108 10.1875C2.27054 10.0466 2.23868 9.89507 2.23735 9.74171C2.23602 9.58835 2.26524 9.43626 2.32331 9.29432C2.38139 9.15237 2.46715 9.02341 2.5756 8.91497C2.68404 8.80652 2.813 8.72076 2.95495 8.66268C3.09689 8.60461 3.24898 8.57539 3.40234 8.57672C3.5557 8.57805 3.70726 8.60991 3.84817 8.67045C3.98909 8.73098 4.11654 8.81897 4.22308 8.92928L7.762 12.4682L15.6568 4.57262C15.7641 4.46529 15.8914 4.38015 16.0316 4.32206C16.1718 4.26397 16.322 4.23407 16.4738 4.23407C16.6255 4.23407 16.7758 4.26397 16.916 4.32206C17.0561 4.38015 17.1835 4.46529 17.2908 4.57262Z" fill="white"/>
</svg>
