<svg width="36" height="35" viewBox="0 0 36 35" fill="none" xmlns="http://www.w3.org/2000/svg">
<path d="M2.16699 16.9999C2.16699 11.0292 2.16699 8.043 4.02266 6.18892C5.87674 4.33325 8.86291 4.33325 14.8337 4.33325H21.167C27.1377 4.33325 30.1239 4.33325 31.978 6.18892C33.8337 8.043 33.8337 11.0292 33.8337 16.9999V20.1666C33.8337 26.1373 33.8337 29.1235 31.978 30.9776C30.1239 32.8332 27.1377 32.8333 21.167 32.8333H14.8337C8.86291 32.8333 5.87674 32.8332 4.02266 30.9776C2.16699 29.1235 2.16699 26.1373 2.16699 20.1666V16.9999Z" stroke="white" stroke-width="2.375"/>
<path d="M10.084 4.33325V1.95825M25.9173 4.33325V1.95825M2.95898 12.2499H33.0423" stroke="white" stroke-width="2.375" stroke-linecap="round"/>
<path d="M27.5 24.9166C27.5 25.3365 27.3332 25.7393 27.0363 26.0362C26.7393 26.3331 26.3366 26.4999 25.9167 26.4999C25.4967 26.4999 25.094 26.3331 24.7971 26.0362C24.5001 25.7393 24.3333 25.3365 24.3333 24.9166C24.3333 24.4967 24.5001 24.094 24.7971 23.797C25.094 23.5001 25.4967 23.3333 25.9167 23.3333C26.3366 23.3333 26.7393 23.5001 27.0363 23.797C27.3332 24.094 27.5 24.4967 27.5 24.9166ZM27.5 18.5833C27.5 19.0032 27.3332 19.4059 27.0363 19.7029C26.7393 19.9998 26.3366 20.1666 25.9167 20.1666C25.4967 20.1666 25.094 19.9998 24.7971 19.7029C24.5001 19.4059 24.3333 19.0032 24.3333 18.5833C24.3333 18.1633 24.5001 17.7606 24.7971 17.4637C25.094 17.1668 25.4967 16.9999 25.9167 16.9999C26.3366 16.9999 26.7393 17.1668 27.0363 17.4637C27.3332 17.7606 27.5 18.1633 27.5 18.5833ZM19.5833 24.9166C19.5833 25.3365 19.4165 25.7393 19.1196 26.0362C18.8227 26.3331 18.4199 26.4999 18 26.4999C17.5801 26.4999 17.1773 26.3331 16.8804 26.0362C16.5835 25.7393 16.4167 25.3365 16.4167 24.9166C16.4167 24.4967 16.5835 24.094 16.8804 23.797C17.1773 23.5001 17.5801 23.3333 18 23.3333C18.4199 23.3333 18.8227 23.5001 19.1196 23.797C19.4165 24.094 19.5833 24.4967 19.5833 24.9166ZM19.5833 18.5833C19.5833 19.0032 19.4165 19.4059 19.1196 19.7029C18.8227 19.9998 18.4199 20.1666 18 20.1666C17.5801 20.1666 17.1773 19.9998 16.8804 19.7029C16.5835 19.4059 16.4167 19.0032 16.4167 18.5833C16.4167 18.1633 16.5835 17.7606 16.8804 17.4637C17.1773 17.1668 17.5801 16.9999 18 16.9999C18.4199 16.9999 18.8227 17.1668 19.1196 17.4637C19.4165 17.7606 19.5833 18.1633 19.5833 18.5833ZM11.6667 24.9166C11.6667 25.3365 11.4999 25.7393 11.2029 26.0362C10.906 26.3331 10.5033 26.4999 10.0833 26.4999C9.66341 26.4999 9.26068 26.3331 8.96375 26.0362C8.66682 25.7393 8.5 25.3365 8.5 24.9166C8.5 24.4967 8.66682 24.094 8.96375 23.797C9.26068 23.5001 9.66341 23.3333 10.0833 23.3333C10.5033 23.3333 10.906 23.5001 11.2029 23.797C11.4999 24.094 11.6667 24.4967 11.6667 24.9166ZM11.6667 18.5833C11.6667 19.0032 11.4999 19.4059 11.2029 19.7029C10.906 19.9998 10.5033 20.1666 10.0833 20.1666C9.66341 20.1666 9.26068 19.9998 8.96375 19.7029C8.66682 19.4059 8.5 19.0032 8.5 18.5833C8.5 18.1633 8.66682 17.7606 8.96375 17.4637C9.26068 17.1668 9.66341 16.9999 10.0833 16.9999C10.5033 16.9999 10.906 17.1668 11.2029 17.4637C11.4999 17.7606 11.6667 18.1633 11.6667 18.5833Z" fill="white"/>
</svg>
