<svg width="37" height="36" viewBox="0 0 37 36" fill="none" xmlns="http://www.w3.org/2000/svg">
<g clip-path="url(#clip0_60_1122)">
<path d="M36.0485 15.2709L32.4881 8.14592C32.3734 7.91635 32.2147 7.71162 32.0209 7.5434C31.8272 7.37518 31.6022 7.24678 31.3588 7.16552C31.1154 7.08426 30.8584 7.05173 30.6024 7.0698C30.3464 7.08787 30.0965 7.15617 29.867 7.27082L26.2996 9.05451L18.8843 7.09217C18.7443 7.05588 18.5973 7.05588 18.4572 7.09217L11.0419 9.05451L7.47596 7.27082C7.24633 7.15596 6.99631 7.08748 6.7402 7.0693C6.48409 7.05112 6.2269 7.08359 5.98335 7.16486C5.7398 7.24613 5.51465 7.37461 5.32077 7.54294C5.1269 7.71128 4.9681 7.91617 4.85346 8.14592L1.29306 15.2709C1.06143 15.7344 1.02334 16.2708 1.18719 16.7624C1.35103 17.2539 1.70338 17.6602 2.16676 17.892L5.95606 19.7874L13.7175 25.331C13.8016 25.3917 13.8962 25.4361 13.9966 25.4622L22.929 27.6953C22.997 27.7124 23.0669 27.7208 23.137 27.7204C23.359 27.7202 23.5719 27.6319 23.7287 27.4748L31.4483 19.7552L35.1748 17.892C35.6382 17.6602 35.9905 17.2539 36.1544 16.7624C36.3182 16.2708 36.2801 15.7344 36.0485 15.2709ZM28.6513 20.1781L23.6548 16.1753C23.4936 16.0463 23.2905 15.9814 23.0845 15.993C22.8784 16.0046 22.6839 16.0919 22.5382 16.2381C19.9353 18.8606 17.0253 18.5298 15.1704 17.3435C15.1339 17.321 15.1031 17.2904 15.0804 17.2541C15.0576 17.2178 15.0435 17.1768 15.0392 17.1341C15.0342 17.0951 15.0381 17.0554 15.0504 17.018C15.0627 16.9805 15.0832 16.9463 15.1104 16.9178L21.243 10.9722H25.9688L29.934 18.9025L28.6513 20.1781ZM2.77528 16.2325C2.7522 16.1626 2.75772 16.0863 2.79064 16.0204L6.35243 8.894C6.37584 8.84755 6.41177 8.80855 6.45616 8.78143C6.50055 8.7543 6.55163 8.74012 6.60366 8.74048C6.64677 8.74052 6.68929 8.75056 6.72787 8.76979L9.82769 10.319L6.01468 17.9506L2.91485 16.4014C2.8814 16.3841 2.85179 16.3603 2.82781 16.3312C2.80382 16.3022 2.78596 16.2686 2.77528 16.2325ZM22.8802 25.9563L14.5619 23.8767L7.45782 18.802L11.5304 10.6582L18.6708 8.76839L20.7364 9.3155C20.5784 9.34606 20.4328 9.42224 20.3177 9.53462L13.9394 15.7245C13.7323 15.9315 13.5744 16.1823 13.4773 16.4585C13.3802 16.7348 13.3464 17.0293 13.3784 17.3203C13.4104 17.6113 13.5074 17.8914 13.6623 18.1399C13.8171 18.3884 14.0258 18.599 14.273 18.7559C17.095 20.5592 20.5187 20.22 23.1775 17.9339L27.4636 21.3701L22.8802 25.9563ZM34.5663 16.2325C34.5548 16.2674 34.5365 16.2996 34.5126 16.3274C34.4886 16.3552 34.4595 16.3779 34.4267 16.3944L31.3269 17.9506L27.5139 10.319L30.6137 8.76979C30.6465 8.7533 30.6823 8.74346 30.7189 8.74083C30.7556 8.73819 30.7924 8.74282 30.8272 8.75444C30.862 8.76592 30.8943 8.78416 30.9221 8.80811C30.9498 8.83206 30.9726 8.86124 30.9891 8.894L34.5509 16.0204C34.5838 16.0863 34.5893 16.1626 34.5663 16.2325ZM18.9346 30.4351C18.8808 30.6504 18.7437 30.8357 18.5535 30.9501C18.3632 31.0644 18.1353 31.0986 17.9199 31.045L12.0957 29.5893C11.9952 29.5635 11.9005 29.519 11.8166 29.4581L8.13612 26.8328C7.9553 26.7032 7.83335 26.5071 7.7971 26.2877C7.76084 26.0682 7.81326 25.8433 7.94282 25.6625C8.07237 25.4817 8.26846 25.3597 8.48793 25.3235C8.7074 25.2872 8.93228 25.3396 9.1131 25.4692L12.6568 27.9996L18.3246 29.4162C18.4316 29.4429 18.5323 29.4905 18.6208 29.5563C18.7093 29.622 18.784 29.7046 18.8405 29.7992C18.8971 29.8939 18.9344 29.9988 18.9503 30.1079C18.9662 30.217 18.9603 30.3282 18.9332 30.4351H18.9346Z" fill="white"/>
</g>
<defs>
<clipPath id="clip0_60_1122">
<rect width="35.7296" height="35.7296" fill="white" transform="translate(0.806641 0.0858154)"/>
</clipPath>
</defs>
</svg>
