<svg width="32" height="32" viewBox="0 0 32 32" fill="none" xmlns="http://www.w3.org/2000/svg">
<circle cx="16" cy="16" r="16" fill="#DC2215"/>
<g clip-path="url(#clip0_86_1946)">
<path d="M20.166 7.66699H11.8327C9.5315 7.66699 7.66602 9.53247 7.66602 11.8337V20.167C7.66602 22.4682 9.5315 24.3337 11.8327 24.3337H20.166C22.4672 24.3337 24.3327 22.4682 24.3327 20.167V11.8337C24.3327 9.53247 22.4672 7.66699 20.166 7.66699Z" stroke="white" stroke-width="1.66667" stroke-linecap="round" stroke-linejoin="round"/>
<path d="M20.5828 11.417H20.5911M19.3328 15.4753C19.4356 16.1689 19.3171 16.8772 18.9942 17.4995C18.6713 18.1218 18.1604 18.6265 17.5341 18.9417C16.9079 19.2569 16.1981 19.3667 15.5059 19.2553C14.8137 19.1439 14.1742 18.8171 13.6785 18.3213C13.1827 17.8255 12.8559 17.1861 12.7445 16.4938C12.6331 15.8016 12.7428 15.0919 13.058 14.4656C13.3733 13.8394 13.8779 13.3284 14.5003 13.0055C15.1226 12.6826 15.8309 12.5641 16.5244 12.667C17.2319 12.7719 17.8868 13.1015 18.3925 13.6072C18.8982 14.1129 19.2279 14.7679 19.3328 15.4753Z" stroke="white" stroke-width="1.66667" stroke-linecap="round" stroke-linejoin="round"/>
</g>
<defs>
<clipPath id="clip0_86_1946">
<rect width="20" height="20" fill="white" transform="translate(6 6)"/>
</clipPath>
</defs>
</svg>
