<svg width="38" height="38" viewBox="0 0 38 38" fill="none" xmlns="http://www.w3.org/2000/svg">
<g clip-path="url(#clip0_86_1748)">
<path d="M28.7739 0.772278H9.35042C4.6178 0.772278 0.78125 4.60883 0.78125 9.34145V28.7649C0.78125 33.4975 4.6178 37.3341 9.35042 37.3341H28.7739C33.5065 37.3341 37.343 33.4975 37.343 28.7649V9.34145C37.343 4.60883 33.5065 0.772278 28.7739 0.772278Z" fill="url(#paint0_radial_86_1748)"/>
<path d="M28.7739 0.772278H9.35042C4.6178 0.772278 0.78125 4.60883 0.78125 9.34145V28.7649C0.78125 33.4975 4.6178 37.3341 9.35042 37.3341H28.7739C33.5065 37.3341 37.343 33.4975 37.343 28.7649V9.34145C37.343 4.60883 33.5065 0.772278 28.7739 0.772278Z" fill="url(#paint1_radial_86_1748)"/>
<path d="M19.0635 4.77124C15.1848 4.77124 14.6979 4.78824 13.1746 4.8575C11.6542 4.9272 10.6163 5.16785 9.70826 5.52104C8.76879 5.8858 7.972 6.37382 7.17821 7.16789C6.38371 7.96183 5.89569 8.75862 5.52979 9.69766C5.1756 10.606 4.93466 11.6443 4.86625 13.164C4.79813 14.6875 4.78027 15.1745 4.78027 19.0533C4.78027 22.9322 4.79741 23.4175 4.86654 24.9408C4.93652 26.4612 5.17717 27.4991 5.53008 28.4071C5.89512 29.3466 6.38314 30.1434 7.17721 30.9372C7.97086 31.7317 8.76765 32.2209 9.7064 32.5856C10.6152 32.9388 11.6532 33.1795 13.1733 33.2492C14.6968 33.3184 15.1832 33.3354 19.0618 33.3354C22.9409 33.3354 23.4262 33.3184 24.9495 33.2492C26.47 33.1795 27.509 32.9388 28.4178 32.5856C29.3568 32.2209 30.1524 31.7317 30.9459 30.9372C31.7404 30.1434 32.2283 29.3466 32.5944 28.4076C32.9454 27.4991 33.1865 26.4609 33.2579 24.9411C33.3263 23.4178 33.3442 22.9322 33.3442 19.0533C33.3442 15.1745 33.3263 14.6878 33.2579 13.1643C33.1865 11.6439 32.9454 10.6061 32.5944 9.69808C32.2283 8.75862 31.7404 7.96183 30.9459 7.16789C30.1516 6.37353 29.3571 5.88552 28.4169 5.52119C27.5064 5.16785 26.468 4.92706 24.9475 4.8575C23.4241 4.78824 22.9391 4.77124 19.0591 4.77124H19.0635ZM17.7823 7.34499C18.1626 7.34442 18.5869 7.34499 19.0635 7.34499C22.8769 7.34499 23.3288 7.3587 24.8347 7.42711C26.2272 7.49081 26.983 7.72346 27.4864 7.91898C28.153 8.17777 28.6281 8.48726 29.1277 8.98727C29.6276 9.48714 29.9369 9.96316 30.1964 10.6297C30.3919 11.1324 30.6249 11.8882 30.6883 13.2807C30.7567 14.7863 30.7716 15.2385 30.7716 19.05C30.7716 22.8616 30.7567 23.3139 30.6883 24.8194C30.6246 26.2119 30.3919 26.9677 30.1964 27.4705C29.9376 28.1371 29.6276 28.6117 29.1277 29.1112C28.6278 29.6111 28.1533 29.9205 27.4864 30.1794C26.9836 30.3758 26.2272 30.6079 24.8347 30.6716C23.3291 30.74 22.8769 30.7548 19.0635 30.7548C15.2499 30.7548 14.7979 30.74 13.2925 30.6716C11.9 30.6073 11.1442 30.3746 10.6403 30.1791C9.9739 29.9202 9.49774 29.6108 8.99788 29.111C8.49801 28.6111 8.18866 28.1362 7.92916 27.4694C7.73364 26.9665 7.5007 26.2107 7.43729 24.8182C7.36888 23.3126 7.35517 22.8605 7.35517 19.0465C7.35517 15.2326 7.36888 14.7827 7.43729 13.2771C7.50098 11.8846 7.73364 11.1288 7.92916 10.6254C8.18809 9.95887 8.49801 9.48286 8.99802 8.98299C9.49789 8.48312 9.9739 8.17363 10.6404 7.91427C11.1439 7.71789 11.9 7.48581 13.2925 7.42183C14.61 7.36227 15.1205 7.34442 17.7823 7.34142V7.34499ZM26.6872 9.71636C25.741 9.71636 24.9734 10.4833 24.9734 11.4296C24.9734 12.3758 25.741 13.1435 26.6872 13.1435C27.6334 13.1435 28.401 12.3758 28.401 11.4296C28.401 10.4834 27.6334 9.71579 26.6872 9.71579V9.71636ZM19.0635 11.7188C15.0131 11.7188 11.7292 15.0028 11.7292 19.0533C11.7292 23.1038 15.0131 26.3863 19.0635 26.3863C23.114 26.3863 26.3969 23.1038 26.3969 19.0533C26.3969 15.003 23.1137 11.7188 19.0632 11.7188H19.0635ZM19.0635 14.2926C21.6927 14.2926 23.8243 16.4239 23.8243 19.0533C23.8243 21.6825 21.6927 23.8141 19.0635 23.8141C16.4342 23.8141 14.3029 21.6825 14.3029 19.0533C14.3029 16.4239 16.4342 14.2926 19.0635 14.2926Z" fill="white"/>
</g>
<defs>
<radialGradient id="paint0_radial_86_1748" cx="0" cy="0" r="1" gradientUnits="userSpaceOnUse" gradientTransform="translate(10.493 40.15) rotate(-90) scale(36.2354 33.7018)">
<stop stop-color="#FFDD55"/>
<stop offset="0.1" stop-color="#FFDD55"/>
<stop offset="0.5" stop-color="#FF543E"/>
<stop offset="1" stop-color="#C837AB"/>
</radialGradient>
<radialGradient id="paint1_radial_86_1748" cx="0" cy="0" r="1" gradientUnits="userSpaceOnUse" gradientTransform="translate(-5.34299 3.40601) rotate(78.681) scale(16.1974 66.7664)">
<stop stop-color="#3771C8"/>
<stop offset="0.128" stop-color="#3771C8"/>
<stop offset="1" stop-color="#6600FF" stop-opacity="0"/>
</radialGradient>
<clipPath id="clip0_86_1748">
<rect width="36.5618" height="36.5618" fill="white" transform="translate(0.780273 0.772247)"/>
</clipPath>
</defs>
</svg>
