<svg width="135" height="42" viewBox="0 0 135 42" fill="none" xmlns="http://www.w3.org/2000/svg">
<path d="M11.2912 28V14.9091H13.6626V20.924H13.8224L18.9297 14.9091H21.8253L16.7628 20.7834L21.87 28H19.0192L15.1136 22.3878L13.6626 24.1009V28H11.2912ZM25.2243 14.9091L28.6312 25.2131H28.7654L32.166 14.9091H34.774L30.1589 28H27.2314L22.6227 14.9091H25.2243ZM36.65 28H34.1188L38.7275 14.9091H41.655L46.2701 28H43.7388L40.2424 17.5938H40.1401L36.65 28ZM36.7331 22.8672H43.6365V24.772H36.7331V22.8672ZM52.4304 28H47.9943V14.9091H52.5199C53.8196 14.9091 54.9361 15.1712 55.8693 15.6953C56.8068 16.2152 57.527 16.9631 58.0298 17.9389C58.5327 18.9148 58.7841 20.0824 58.7841 21.4418C58.7841 22.8054 58.5305 23.9773 58.0234 24.9574C57.5206 25.9375 56.794 26.6896 55.8438 27.2138C54.8977 27.7379 53.7599 28 52.4304 28ZM50.3658 25.9482H52.3153C53.2273 25.9482 53.9879 25.782 54.5973 25.4496C55.2067 25.1129 55.6648 24.6122 55.9716 23.9474C56.2784 23.2784 56.4318 22.4432 56.4318 21.4418C56.4318 20.4403 56.2784 19.6094 55.9716 18.9489C55.6648 18.2841 55.2109 17.7876 54.6101 17.4595C54.0135 17.1271 53.272 16.9609 52.3857 16.9609H50.3658V25.9482ZM61.0373 28V14.9091H65.9464C66.9521 14.9091 67.7958 15.0838 68.4776 15.4332C69.1637 15.7827 69.6815 16.2727 70.0309 16.9034C70.3846 17.5298 70.5614 18.2607 70.5614 19.0959C70.5614 19.9354 70.3825 20.6641 70.0245 21.282C69.6708 21.8956 69.1488 22.3707 68.4585 22.7074C67.7681 23.0398 66.9201 23.206 65.9144 23.206H62.418V21.2372H65.5948C66.1829 21.2372 66.6644 21.1562 67.0394 20.9943C67.4144 20.8281 67.6914 20.5874 67.8704 20.272C68.0536 19.9524 68.1452 19.5604 68.1452 19.0959C68.1452 18.6314 68.0536 18.2351 67.8704 17.907C67.6871 17.5746 67.408 17.3232 67.033 17.1527C66.658 16.978 66.1744 16.8906 65.582 16.8906H63.4087V28H61.0373ZM67.8001 22.0682L71.0408 28H68.3945L65.2113 22.0682H67.8001ZM74.4254 28H71.8942L76.5028 14.9091H79.4304L84.0455 28H81.5142L78.0178 17.5938H77.9155L74.4254 28ZM74.5085 22.8672H81.4119V24.772H74.5085V22.8672ZM83.6124 16.897V14.9091H94.057V16.897H90.0108V28H87.6586V16.897H83.6124ZM96.7784 28.1406C96.3906 28.1406 96.0582 28.0043 95.7812 27.7315C95.5043 27.4588 95.3679 27.1264 95.3722 26.7344C95.3679 26.3509 95.5043 26.0227 95.7812 25.75C96.0582 25.4773 96.3906 25.3409 96.7784 25.3409C97.1534 25.3409 97.4794 25.4773 97.7564 25.75C98.0376 26.0227 98.1804 26.3509 98.1847 26.7344C98.1804 26.9943 98.1122 27.2308 97.9801 27.4439C97.8523 27.657 97.6818 27.8274 97.4688 27.9553C97.2599 28.0788 97.0298 28.1406 96.7784 28.1406ZM100.676 28V14.9091H103.047V20.924H103.207L108.314 14.9091H111.21L106.148 20.7834L111.255 28H108.404L104.498 22.3878L103.047 24.1009V28H100.676ZM120.924 19.0895C120.818 18.7443 120.671 18.4354 120.483 18.1626C120.3 17.8857 120.078 17.6491 119.819 17.4531C119.563 17.2571 119.269 17.1101 118.936 17.0121C118.604 16.9098 118.242 16.8587 117.85 16.8587C117.147 16.8587 116.52 17.0355 115.971 17.3892C115.421 17.7429 114.988 18.2628 114.673 18.9489C114.362 19.6307 114.206 20.4616 114.206 21.4418C114.206 22.4304 114.362 23.2678 114.673 23.9538C114.984 24.6399 115.417 25.1619 115.971 25.5199C116.525 25.8736 117.168 26.0504 117.901 26.0504C118.566 26.0504 119.141 25.9226 119.627 25.6669C120.117 25.4112 120.494 25.049 120.758 24.5803C121.022 24.1072 121.154 23.5533 121.154 22.9183L121.691 23.0014H118.137V21.1477H123.449V22.7202C123.449 23.8409 123.211 24.8104 122.733 25.6286C122.256 26.4467 121.6 27.0774 120.765 27.5206C119.929 27.9595 118.971 28.179 117.888 28.179C116.682 28.179 115.623 27.9084 114.711 27.3672C113.804 26.8217 113.094 26.0483 112.583 25.0469C112.076 24.0412 111.822 22.848 111.822 21.4673C111.822 20.4105 111.971 19.4666 112.27 18.6357C112.572 17.8047 112.994 17.0994 113.535 16.5199C114.076 15.9361 114.711 15.4929 115.44 15.1903C116.169 14.8835 116.961 14.7301 117.818 14.7301C118.542 14.7301 119.218 14.8366 119.844 15.0497C120.471 15.2585 121.027 15.5568 121.512 15.9446C122.002 16.3324 122.405 16.7926 122.721 17.3253C123.036 17.858 123.243 18.446 123.341 19.0895H120.924Z" fill="white"/>
</svg>
