<svg width="32" height="31" viewBox="0 0 32 31" fill="none" xmlns="http://www.w3.org/2000/svg">
<circle cx="16.1555" cy="15.2766" r="14.9937" fill="#414141" stroke="#9D9D9D" stroke-width="0.565799"/>
<g clip-path="url(#clip0_604_3446)">
<path fill-rule="evenodd" clip-rule="evenodd" d="M20.5567 10.9935C20.6965 10.9346 20.8496 10.9143 20.9999 10.9347C21.1502 10.9551 21.2924 11.0154 21.4115 11.1093C21.5306 11.2032 21.6224 11.3274 21.6772 11.4688C21.7321 11.6102 21.748 11.7638 21.7234 11.9135L20.4402 19.6972C20.3157 20.448 19.4919 20.8786 18.8033 20.5046C18.2273 20.1917 17.3718 19.7096 16.6024 19.2066C16.2176 18.9548 15.0391 18.1486 15.1839 17.5749C15.3084 17.0843 17.2887 15.2409 18.4203 14.145C18.8644 13.7144 18.6619 13.466 18.1374 13.8621C16.8349 14.8455 14.7437 16.3409 14.0523 16.7618C13.4424 17.133 13.1244 17.1963 12.7442 17.133C12.0505 17.0176 11.4072 16.8388 10.8821 16.6209C10.1726 16.3267 10.2071 15.3513 10.8816 15.0672L20.5567 10.9935Z" fill="white"/>
</g>
<defs>
<clipPath id="clip0_604_3446">
<rect width="13.5792" height="13.5792" fill="white" transform="translate(9.36621 8.48698)"/>
</clipPath>
</defs>
</svg>
