<svg width="31" height="31" viewBox="0 0 31 31" fill="none" xmlns="http://www.w3.org/2000/svg">
<circle cx="15.7155" cy="15.2766" r="14.9937" fill="#414141" stroke="#9D9D9D" stroke-width="0.565799"/>
<g clip-path="url(#clip0_604_3441)">
<path d="M15.4318 13.7678C14.9566 13.7678 14.5009 13.9566 14.1649 14.2926C13.8289 14.6286 13.6401 15.0843 13.6401 15.5595C13.6401 16.0347 13.8289 16.4904 14.1649 16.8264C14.5009 17.1624 14.9566 17.3512 15.4318 17.3512C15.907 17.3512 16.3627 17.1624 16.6988 16.8264C17.0348 16.4904 17.2235 16.0347 17.2235 15.5595C17.2235 15.0843 17.0348 14.6286 16.6988 14.2926C16.3627 13.9566 15.907 13.7678 15.4318 13.7678Z" fill="white"/>
<path fill-rule="evenodd" clip-rule="evenodd" d="M13.2832 10.1844C12.4278 10.1844 11.6075 10.5242 11.0027 11.129C10.3979 11.7338 10.0581 12.5541 10.0581 13.4094V17.7095C10.0581 18.5648 10.3979 19.3851 11.0027 19.9899C11.6075 20.5948 12.4278 20.9345 13.2832 20.9345H17.5832C18.4386 20.9345 19.2589 20.5948 19.8637 19.9899C20.4685 19.3851 20.8083 18.5648 20.8083 17.7095V13.4094C20.8083 12.5541 20.4685 11.7338 19.8637 11.129C19.2589 10.5242 18.4386 10.1844 17.5832 10.1844H13.2832ZM12.9248 15.5595C12.9248 14.8942 13.1891 14.2562 13.6595 13.7858C14.1299 13.3154 14.7679 13.0511 15.4332 13.0511C16.0985 13.0511 16.7365 13.3154 17.2069 13.7858C17.6773 14.2562 17.9416 14.8942 17.9416 15.5595C17.9416 16.2247 17.6773 16.8627 17.2069 17.3331C16.7365 17.8036 16.0985 18.0678 15.4332 18.0678C14.7679 18.0678 14.1299 17.8036 13.6595 17.3331C13.1891 16.8627 12.9248 16.2247 12.9248 15.5595ZM17.9416 13.0511H18.6582V12.3344H17.9416V13.0511Z" fill="white"/>
</g>
<defs>
<clipPath id="clip0_604_3441">
<rect width="10.7502" height="10.7502" fill="white" transform="translate(10.0581 10.1844)"/>
</clipPath>
</defs>
</svg>
