<svg width="38" height="38" viewBox="0 0 38 38" fill="none" xmlns="http://www.w3.org/2000/svg">
<g clip-path="url(#clip0_60_1020)">
<path d="M6.15709 6.27861L6.15696 6.27874C2.76901 9.66685 0.865245 14.2617 0.864243 19.0531L6.15709 6.27861ZM6.15709 6.27861C9.54135 2.89209 14.1396 0.987503 18.9299 0.987503C23.7201 0.987503 28.3184 2.89209 31.7026 6.27861L31.7028 6.27879C35.0901 9.66552 36.9955 14.2639 36.9955 19.0531C36.9955 23.8424 35.0901 28.4407 31.7028 31.8275L31.7026 31.8276C28.3184 35.2142 23.7201 37.1188 18.9299 37.1188C14.1396 37.1188 9.54135 35.2142 6.15709 31.8276L6.15691 31.8275M6.15709 6.27861L6.15691 31.8275M6.15691 31.8275C2.76965 28.4408 0.864276 23.8424 0.864243 19.0533L6.15691 31.8275Z" fill="url(#paint0_linear_60_1020)" stroke="white" stroke-width="1.22067"/>
<path d="M8.7075 18.8559C14.1527 16.4841 17.7828 14.9203 19.5979 14.1647C24.7863 12.0074 25.8631 11.6327 26.5664 11.62C26.721 11.6175 27.0654 11.6557 27.2901 11.8374C27.4768 11.9906 27.5293 12.1978 27.5556 12.3432C27.579 12.4886 27.6111 12.8198 27.5848 13.0783C27.3047 16.0315 26.0878 23.1978 25.4692 26.5055C25.2094 27.905 24.6929 28.3742 24.1939 28.42C23.1084 28.5198 22.2855 27.7033 21.235 27.015C19.5921 25.9373 18.6641 25.2667 17.0679 24.2153C15.2237 23.0002 16.4201 22.3323 17.4706 21.2409C17.7449 20.9552 22.5248 16.6087 22.6152 16.2144C22.6269 16.1651 22.6386 15.9813 22.5277 15.8844C22.4197 15.7872 22.2592 15.8205 22.1425 15.8467C21.9762 15.8841 19.3528 17.6198 14.2636 21.0535C13.5195 21.5654 12.8454 21.8149 12.2384 21.8017C11.5731 21.7874 10.2891 21.4247 9.33489 21.1148C8.16765 20.7346 7.23677 20.5335 7.31847 19.8877C7.35933 19.5516 7.82331 19.2075 8.7075 18.8559Z" fill="white"/>
</g>
<defs>
<linearGradient id="paint0_linear_60_1020" x1="1867.85" y1="0.377167" x2="1867.85" y2="3735.57" gradientUnits="userSpaceOnUse">
<stop stop-color="#2AABEE"/>
<stop offset="1" stop-color="#229ED9"/>
</linearGradient>
<clipPath id="clip0_60_1020">
<rect width="37.3519" height="37.3519" fill="white" transform="translate(0.253906 0.377167)"/>
</clipPath>
</defs>
</svg>
