<svg width="20.281250" height="16.808502" viewBox="0 0 20.2812 16.8085" fill="none" xmlns="http://www.w3.org/2000/svg" xmlns:xlink="http://www.w3.org/1999/xlink">
	<desc>
			Created with Pixso.
	</desc>
	<defs/>
	<path id="Vector" d="M1.39 7.23C6.83 4.86 10.46 3.3 12.28 2.54C17.47 0.38 18.54 0.01 19.25 0C19.4 -0.01 19.75 0.03 19.97 0.21C20.16 0.37 20.21 0.57 20.24 0.72C20.26 0.86 20.29 1.19 20.27 1.45C19.99 4.41 18.77 11.57 18.15 14.88C17.89 16.28 17.37 16.75 16.88 16.8C15.79 16.9 14.97 16.08 13.92 15.39C12.27 14.31 11.35 13.64 9.75 12.59C7.91 11.38 9.1 10.71 10.15 9.62C10.43 9.33 15.21 4.98 15.3 4.59C15.31 4.54 15.32 4.36 15.21 4.26C15.1 4.16 14.94 4.2 14.82 4.22C14.66 4.26 12.03 5.99 6.95 9.43C6.2 9.94 5.53 10.19 4.92 10.18C4.25 10.16 2.97 9.8 2.02 9.49C0.85 9.11 -0.08 8.91 0 8.26C0.04 7.93 0.5 7.58 1.39 7.23Z" fill="#FFFFFF" fill-opacity="1.000000" fill-rule="nonzero"/>
</svg>
