<svg width="37.351562" height="37.351929" viewBox="0 0 37.3516 37.3519" fill="none" xmlns="http://www.w3.org/2000/svg" xmlns:xlink="http://www.w3.org/1999/xlink">
	<desc>
			Created with Pixso.
	</desc>
	<defs>
		<linearGradient x1="1867.595093" y1="0.000000" x2="1867.595093" y2="3735.192139" id="paint_linear_60_1021_0" gradientUnits="userSpaceOnUse">
			<stop stop-color="#2AABEE"/>
			<stop offset="1.000000" stop-color="#229ED9"/>
		</linearGradient>
	</defs>
	<path id="Vector" d="M18.67 0C13.72 0 8.97 1.96 5.47 5.47C1.96 8.97 0 13.72 0 18.67C0 23.62 1.96 28.38 5.47 31.88C8.97 35.38 13.72 37.35 18.67 37.35C23.62 37.35 28.38 35.38 31.88 31.88C35.38 28.38 37.35 23.62 37.35 18.67C37.35 13.72 35.38 8.97 31.88 5.47C28.38 1.96 23.62 0 18.67 0Z" fill="url(#paint_linear_60_1021_0)" fill-opacity="1.000000" fill-rule="nonzero"/>
	<path id="Vector" d="M18.67 0C13.72 0 8.97 1.96 5.47 5.47C1.96 8.97 0 13.72 0 18.67C0 23.62 1.96 28.38 5.47 31.88C8.97 35.38 13.72 37.35 18.67 37.35C23.62 37.35 28.38 35.38 31.88 31.88C35.38 28.38 37.35 23.62 37.35 18.67C37.35 13.72 35.38 8.97 31.88 5.47C28.38 1.96 23.62 0 18.67 0ZM2.5 11.97Q3.77 8.88 6.33 6.33L6.33 6.33Q8.88 3.78 11.96 2.5Q15.05 1.22 18.67 1.22Q22.29 1.22 25.39 2.5Q28.46 3.78 31.01 6.33Q33.57 8.89 34.85 11.98Q36.13 15.06 36.13 18.67Q36.13 22.28 34.85 25.36Q33.57 28.45 31.01 31.01Q28.46 33.56 25.39 34.84Q22.3 36.13 18.67 36.13Q15.05 36.13 11.96 34.84Q8.88 33.56 6.33 31.01Q3.77 28.45 2.49 25.37Q1.22 22.28 1.22 18.67Q1.22 15.06 2.5 11.97Z" fill="#FFFFFF" fill-opacity="1.000000" fill-rule="evenodd"/>
</svg>
