
<svg width="37.351562" height="37.351929" viewBox="0 0 37.3516 37.3519" fill="none" xmlns="http://www.w3.org/2000/svg" xmlns:xlink="http://www.w3.org/1999/xlink">
	<desc>
			Created with Pixso.
	</desc>
	<defs>
		<linearGradient x1="1867.595093" y1="0.000000" x2="1867.595093" y2="3735.192139" id="paint_linear_60_1021_0" gradientUnits="userSpaceOnUse">
			<stop stop-color="#2AABEE"/>
			<stop offset="1.000000" stop-color="#229ED9"/>
		</linearGradient>
	</defs>
	<path id="Vector" d="M18.67 0C13.72 0 8.97 1.96 5.47 5.47C1.96 8.97 0 13.72 0 18.67C0 23.62 1.96 28.38 5.47 31.88C8.97 35.38 13.72 37.35 18.67 37.35C23.62 37.35 28.38 35.38 31.88 31.88C35.38 28.38 37.35 23.62 37.35 18.67C37.35 13.72 35.38 8.97 31.88 5.47C28.38 1.96 23.62 0 18.67 0Z" fill="url(#paint_linear_60_1021_0)" fill-opacity="1.000000" fill-rule="nonzero"/>
	<path id="Vector" d="M18.67 0C13.72 0 8.97 1.96 5.47 5.47C1.96 8.97 0 13.72 0 18.67C0 23.62 1.96 28.38 5.47 31.88C8.97 35.38 13.72 37.35 18.67 37.35C23.62 37.35 28.38 35.38 31.88 31.88C35.38 28.38 37.35 23.62 37.35 18.67C37.35 13.72 35.38 8.97 31.88 5.47C28.38 1.96 23.62 0 18.67 0ZM2.5 11.97Q3.77 8.88 6.33 6.33L6.33 6.33Q8.88 3.78 11.96 2.5Q15.05 1.22 18.67 1.22Q22.29 1.22 25.39 2.5Q28.46 3.78 31.01 6.33Q33.57 8.89 34.85 11.98Q36.13 15.06 36.13 18.67Q36.13 22.28 34.85 25.36Q33.57 28.45 31.01 31.01Q28.46 33.56 25.39 34.84Q22.3 36.13 18.67 36.13Q15.05 36.13 11.96 34.84Q8.88 33.56 6.33 31.01Q3.77 28.45 2.49 25.37Q1.22 22.28 1.22 18.67Q1.22 15.06 2.5 11.97Z" fill="#FFFFFF" fill-opacity="1.000000" fill-rule="evenodd"/>

<svg width="32" height="32" viewBox="0 0 32 32" fill="none" xmlns="http://www.w3.org/2000/svg">
<circle cx="16" cy="16" r="16" fill="#DC2215"/>
<path d="M22.1082 7.62217C21.8975 7.6375 21.6907 7.68693 21.4959 7.76852H21.4933C21.3063 7.84267 20.417 8.21674 19.0652 8.78374L14.2207 10.824C10.7446 12.2875 7.32748 13.7286 7.32748 13.7286L7.36816 13.7128C7.36816 13.7128 7.13257 13.7903 6.88648 13.9589C6.73444 14.0557 6.60362 14.1823 6.50191 14.331C6.38116 14.5082 6.28404 14.7792 6.32013 15.0595C6.37919 15.5333 6.68632 15.8174 6.90682 15.9743C7.12994 16.1331 7.34257 16.2072 7.34257 16.2072H7.34782L10.5523 17.2868C10.696 17.7481 11.5288 20.486 11.7289 21.1166C11.8471 21.4933 11.9619 21.7289 12.1056 21.9087C12.1752 22.0006 12.2566 22.0774 12.3544 22.1391C12.4052 22.1686 12.4594 22.192 12.5158 22.2086L12.483 22.2008C12.4928 22.2034 12.5007 22.2113 12.5079 22.2139C12.5342 22.2211 12.5519 22.2237 12.5854 22.229C13.0926 22.3825 13.5002 22.0675 13.5002 22.0675L13.5231 22.0492L15.4151 20.3265L18.5861 22.7592L18.6583 22.7901C19.3191 23.0801 19.9885 22.9187 20.3422 22.6339C20.6986 22.3471 20.837 21.9803 20.837 21.9803L20.86 21.9212L23.3104 9.3678C23.38 9.05805 23.3977 8.76799 23.3209 8.48646C23.2418 8.20153 23.059 7.95647 22.8084 7.79936C22.598 7.67147 22.3541 7.60974 22.1082 7.62217ZM22.0419 8.96749C22.0393 9.00883 22.0472 9.00424 22.0288 9.08364V9.09086L19.6013 21.5137C19.5908 21.5314 19.5731 21.5701 19.5245 21.6088C19.4734 21.6495 19.4327 21.6751 19.2194 21.5905L15.3409 18.617L12.9981 20.7524L13.4903 17.609L19.8271 11.7027C20.0883 11.4599 20.001 11.4087 20.001 11.4087C20.0194 11.1108 19.6066 11.3215 19.6066 11.3215L11.6161 16.2715L11.6134 16.2584L7.78357 14.9689V14.9663L7.77373 14.9643C7.78044 14.9621 7.78701 14.9594 7.79341 14.9564L7.81441 14.9459L7.83476 14.9387C7.83476 14.9387 11.2545 13.4976 14.7306 12.0341C16.471 11.3011 18.2245 10.5628 19.5731 9.99321C20.3729 9.65655 21.1735 9.32186 21.975 8.98914C22.0288 8.96814 22.0032 8.96749 22.0419 8.96749Z" fill="white"/>

</svg>
