
<svg width="36" height="36" viewBox="0 0 36 36" fill="none" xmlns="http://www.w3.org/2000/svg">
<g clip-path="url(#clip0_60_1024)">
<path d="M0.880581 17.8413C0.879758 20.8155 1.6569 23.7197 3.13463 26.2794L0.739258 35.0253L9.68958 32.6785C12.1651 34.0261 14.9388 34.7323 17.7574 34.7325H17.7648C27.0695 34.7325 34.6438 27.161 34.6478 17.8546C34.6495 13.345 32.8949 9.10445 29.7071 5.9141C26.5197 2.72403 22.2807 0.966261 17.7641 0.964203C8.45828 0.964203 0.884561 8.53531 0.880719 17.8413" fill="url(#paint0_linear_60_1024)"/>
<path d="M0.277671 17.8358C0.276711 20.9171 1.08171 23.9251 2.61212 26.5765L0.130859 35.6359L9.4021 33.2049C11.9566 34.5977 14.8328 35.3321 17.7594 35.3332H17.767C27.4055 35.3332 35.2519 27.4893 35.256 17.8498C35.2576 13.1781 33.4399 8.78517 30.1381 5.48053C26.836 2.1763 22.4453 0.355284 17.767 0.353363C8.12676 0.353363 0.281513 8.19614 0.277671 17.8358ZM5.79904 26.1198L5.45286 25.5703C3.99764 23.2564 3.22955 20.5825 3.23065 17.8369C3.23367 9.82466 9.75432 3.30607 17.7724 3.30607C21.6554 3.30771 25.3046 4.82139 28.0493 7.56773C30.7938 10.3144 32.3041 13.9654 32.3031 17.8487C32.2996 25.8609 25.7788 32.3803 17.767 32.3803H17.7612C15.1525 32.379 12.594 31.6784 10.3627 30.3545L9.8317 30.0396L4.32996 31.482L5.79904 26.1198Z" fill="url(#paint1_linear_60_1024)"/>
<path d="M13.3973 10.5271C13.07 9.79945 12.7254 9.78477 12.4141 9.77201C12.1592 9.76103 11.8677 9.76185 11.5766 9.76185C11.2852 9.76185 10.8117 9.87148 10.4114 10.3085C10.0108 10.7459 8.88184 11.803 8.88184 13.9529C8.88184 16.1028 10.4478 18.1806 10.6661 18.4725C10.8847 18.7638 13.6892 23.3169 18.1309 25.0684C21.8223 26.5241 22.5735 26.2346 23.3746 26.1616C24.1759 26.0889 25.9602 25.1048 26.3242 24.0844C26.6885 23.0641 26.6885 22.1896 26.5793 22.0068C26.47 21.8247 26.1786 21.7154 25.7416 21.4969C25.3046 21.2785 23.1561 20.2212 22.7556 20.0753C22.3549 19.9296 22.0636 19.8569 21.7722 20.2945C21.4808 20.7313 20.6439 21.7154 20.3889 22.0068C20.1341 22.2989 19.879 22.3353 19.4421 22.1167C19.0049 21.8974 17.5975 21.4366 15.9279 19.948C14.6288 18.7897 13.7517 17.3593 13.4968 16.9218C13.2419 16.4849 13.4695 16.2481 13.6886 16.0303C13.885 15.8345 14.1258 15.52 14.3445 15.265C14.5624 15.0098 14.6351 14.8277 14.7808 14.5363C14.9266 14.2446 14.8537 13.9894 14.7446 13.7708C14.6351 13.5522 13.7859 11.3911 13.3973 10.5271Z" fill="white"/>
</g>
<defs>
<linearGradient id="paint0_linear_60_1024" x1="1696.16" y1="3407.07" x2="1696.16" y2="0.964203" gradientUnits="userSpaceOnUse">
<stop stop-color="#1FAF38"/>
<stop offset="1" stop-color="#60D669"/>
</linearGradient>
<linearGradient id="paint1_linear_60_1024" x1="1756.39" y1="3528.6" x2="1756.39" y2="0.353363" gradientUnits="userSpaceOnUse">
<stop stop-color="#F9F9F9"/>
<stop offset="1" stop-color="white"/>
</linearGradient>
<clipPath id="clip0_60_1024">
<rect width="35.1251" height="35.3995" fill="white" transform="translate(0.130859 0.353363)"/>
</clipPath>
</defs>
<svg width="32" height="32" viewBox="0 0 32 32" fill="none" xmlns="http://www.w3.org/2000/svg">
<circle cx="16" cy="16" r="16" fill="#DC2215"/>
<path d="M11.3474 21.1822L11.9809 21.5524C13.0492 22.1754 14.2643 22.5025 15.501 22.5C16.8855 22.5 18.2388 22.0895 19.39 21.3203C20.5411 20.5511 21.4383 19.4579 21.9681 18.1788C22.498 16.8997 22.6366 15.4922 22.3665 14.1344C22.0964 12.7765 21.4297 11.5292 20.4507 10.5503C19.4718 9.57129 18.2245 8.9046 16.8666 8.6345C15.5088 8.36441 14.1013 8.50303 12.8222 9.03284C11.5431 9.56266 10.4499 10.4599 9.6807 11.611C8.91153 12.7622 8.50099 14.1155 8.50099 15.5C8.49844 16.7371 8.82585 17.9526 9.44949 19.021L9.81874 19.6545L9.24736 21.7554L11.3474 21.1822ZM6.75449 24.25L7.93749 19.903C7.15795 18.5668 6.74841 17.047 6.75099 15.5C6.75099 10.6674 10.6684 6.75 15.501 6.75C20.3336 6.75 24.251 10.6674 24.251 15.5C24.251 20.3326 20.3336 24.25 15.501 24.25C13.9547 24.2525 12.4356 23.8433 11.0997 23.0644L6.75449 24.25ZM12.3431 11.3945C12.4604 11.3858 12.5785 11.3857 12.6957 11.391C12.743 11.3945 12.7902 11.3998 12.8375 11.405C12.9766 11.4208 13.1297 11.5056 13.1814 11.6229C13.4421 12.2144 13.6959 12.8103 13.9409 13.4079C13.9951 13.5409 13.9627 13.7115 13.8595 13.8777C13.807 13.9626 13.7247 14.0816 13.6294 14.2032C13.5305 14.3301 13.3179 14.5629 13.3179 14.5629C13.3179 14.5629 13.2312 14.6661 13.2645 14.7948C13.2767 14.8438 13.317 14.9146 13.3537 14.9741L13.4054 15.0573C13.6294 15.4309 13.9304 15.8097 14.2979 16.1667C14.4029 16.2682 14.5052 16.3724 14.6155 16.4695C15.025 16.8309 15.4887 17.1257 15.9892 17.3445L15.9936 17.3462C16.068 17.3786 16.1056 17.3961 16.2141 17.4425C16.2684 17.4653 16.3244 17.4845 16.3812 17.5002C16.44 17.5152 16.5019 17.5124 16.5591 17.4921C16.6162 17.4719 16.6661 17.4351 16.7024 17.3865C17.3359 16.6191 17.3936 16.5693 17.3989 16.5693V16.571C17.4429 16.53 17.4952 16.4988 17.5522 16.4796C17.6093 16.4605 17.6697 16.4537 17.7296 16.4599C17.7821 16.4634 17.8355 16.473 17.8845 16.4949C18.3491 16.7075 19.1095 17.0391 19.1095 17.0391L19.6187 17.2675C19.7045 17.3086 19.7824 17.4057 19.785 17.4994C19.7885 17.558 19.7937 17.6525 19.7736 17.8258C19.7456 18.0524 19.6774 18.3245 19.6091 18.4671C19.5623 18.5644 19.5003 18.6536 19.4254 18.7314C19.3371 18.8241 19.2404 18.9084 19.1366 18.9834C19.0649 19.0376 19.0272 19.0621 19.0272 19.0621C18.9184 19.1311 18.8066 19.1954 18.6921 19.2546C18.4668 19.3743 18.218 19.443 17.9632 19.4559C17.8014 19.4646 17.6395 19.4769 17.4767 19.4681C17.4697 19.4681 16.9797 19.392 16.9797 19.392C15.7357 19.0648 14.5852 18.4518 13.6197 17.6018C13.422 17.4276 13.2382 17.2404 13.051 17.054C12.274 16.2796 11.6851 15.444 11.3272 14.6548C11.145 14.2676 11.0466 13.8462 11.0385 13.4184C11.0352 12.887 11.2092 12.3698 11.5329 11.9484C11.5967 11.8661 11.6571 11.7804 11.7612 11.6815C11.8715 11.5765 11.9424 11.5205 12.0185 11.482C12.1197 11.4313 12.2301 11.4015 12.3431 11.3945Z" fill="white"/>

</svg>
