<svg width="31" height="32" viewBox="0 0 31 32" fill="none" xmlns="http://www.w3.org/2000/svg">
<path d="M9.06491 11.2514C9.06491 9.50097 9.76027 7.82222 10.998 6.58447C12.2358 5.34672 13.9145 4.65136 15.665 4.65136C17.4154 4.65136 19.0942 5.34672 20.3319 6.58447C21.5697 7.82222 22.265 9.50097 22.265 11.2514C22.265 11.5015 22.3644 11.7413 22.5412 11.9181C22.718 12.0949 22.9578 12.1943 23.2079 12.1943C23.4579 12.1943 23.6978 12.0949 23.8746 11.9181C24.0514 11.7413 24.1507 11.5015 24.1507 11.2514C24.1506 9.80424 23.7804 8.38114 23.0752 7.11738C22.3701 5.85362 21.3535 4.7912 20.122 4.0311C18.8905 3.27099 17.4851 2.83846 16.0393 2.77462C14.5935 2.71078 13.1555 3.01775 11.8618 3.66634C10.5681 4.31494 9.46177 5.28362 8.64798 6.48031C7.83418 7.67699 7.33996 9.06192 7.21227 10.5034C7.08459 11.945 7.32769 13.3952 7.91848 14.7163C8.50926 16.0374 9.42809 17.1855 10.5876 18.0514C11.582 18.7941 12.7271 19.3097 13.9424 19.5618C14.1112 19.9405 14.4 20.2529 14.7643 20.4509C15.1286 20.6488 15.5479 20.7212 15.9575 20.6568C16.367 20.5925 16.7439 20.3949 17.0299 20.0948C17.3159 19.7946 17.495 19.4086 17.5395 18.9965C17.584 18.5843 17.4915 18.1689 17.2762 17.8146C17.0609 17.4604 16.7348 17.1869 16.3484 17.0366C15.9621 16.8863 15.537 16.8674 15.1388 16.983C14.7407 17.0986 14.3918 17.3422 14.146 17.6761C12.6993 17.334 11.4104 16.5134 10.4882 15.3473C9.56602 14.1813 9.06451 12.7381 9.06491 11.2514ZM10.0078 11.2514C10.0081 10.2107 10.2956 9.1902 10.8385 8.30229C11.3814 7.41437 12.1588 6.69344 13.085 6.2188C14.0112 5.74416 15.0504 5.53423 16.0882 5.61209C17.126 5.68995 18.1223 6.0526 18.9673 6.66012C19.8123 7.26765 20.4734 8.0965 20.8777 9.05548C21.2821 10.0145 21.414 11.0664 21.2591 12.0955C21.1042 13.1247 20.6684 14.0912 19.9996 14.8886C19.3309 15.686 18.4551 16.2835 17.4687 16.6154C16.9614 16.1955 16.3235 15.9657 15.665 15.9657C14.9795 15.9657 14.3516 16.2099 13.8613 16.6154C12.7381 16.2375 11.7619 15.5165 11.0705 14.5541C10.3791 13.5917 10.0074 12.4364 10.0078 11.2514ZM15.665 7.47995C14.6647 7.47995 13.7054 7.8773 12.9981 8.58459C12.2909 9.29187 11.8935 10.2512 11.8935 11.2514C11.8935 12.2517 12.2909 13.211 12.9981 13.9182C13.7054 14.6255 14.6647 15.0229 15.665 15.0229C16.6652 15.0229 17.6245 14.6255 18.3318 13.9182C19.0391 13.211 19.4364 12.2517 19.4364 11.2514C19.4364 10.2512 19.0391 9.29187 18.3318 8.58459C17.6245 7.8773 16.6652 7.47995 15.665 7.47995ZM7.65061 17.8515H8.93197C9.68991 18.6258 10.5757 19.2637 11.5503 19.7372H7.65061C7.27552 19.7372 6.91579 19.8862 6.65055 20.1514C6.38532 20.4167 6.23632 20.7764 6.23632 21.1515V21.6229C6.23632 23.0118 7.12261 24.4034 8.83768 25.4943C10.5414 26.5786 12.9523 27.2801 15.664 27.2801C18.3776 27.2801 20.7885 26.5786 22.4922 25.4943C24.2083 24.4044 25.0936 23.0108 25.0936 21.6229V21.1515C25.0936 20.7764 24.9446 20.4167 24.6794 20.1514C24.4141 19.8862 24.0544 19.7372 23.6793 19.7372H18.3333C18.549 19.1271 18.549 18.4615 18.3333 17.8515H23.6793C24.5545 17.8515 25.3939 18.1991 26.0128 18.818C26.6317 19.4369 26.9793 20.2763 26.9793 21.1515V21.6229C26.9793 23.8792 25.5434 25.7876 23.5049 27.0849C21.4551 28.3899 18.6802 29.1658 15.665 29.1658C12.6497 29.1658 9.87577 28.3899 7.82504 27.0849C5.78657 25.7876 4.35059 23.8792 4.35059 21.6229V21.1515C4.35059 20.2763 4.69827 19.4369 5.31714 18.818C5.93602 18.1991 6.77539 17.8515 7.65061 17.8515Z" fill="white"/>
</svg>
