<svg width="27" height="27" viewBox="0 0 27 27" fill="none" xmlns="http://www.w3.org/2000/svg">
<path d="M23.624 13.5018C23.624 13.8375 23.4906 14.1594 23.2533 14.3967C23.0159 14.6341 22.694 14.7674 22.3583 14.7674L7.53027 14.7674L13.0771 19.7304C13.325 19.9547 13.4741 20.2681 13.4917 20.602C13.5093 20.936 13.3941 21.2633 13.1712 21.5125C12.9482 21.7618 12.6357 21.9127 12.3019 21.9322C11.9681 21.9518 11.6401 21.8385 11.3896 21.617L3.37396 14.4451C3.24097 14.3264 3.13455 14.1809 3.06169 14.0182C2.98883 13.8555 2.95117 13.6792 2.95117 13.501C2.95117 13.3227 2.98883 13.1464 3.06169 12.9837C3.13455 12.821 3.24097 12.6755 3.37396 12.5568L11.3896 5.38493C11.5133 5.27299 11.6579 5.18661 11.8151 5.13076C11.9723 5.0749 12.139 5.05068 12.3055 5.05947C12.4721 5.06827 12.6353 5.10991 12.7858 5.18201C12.9362 5.2541 13.0709 5.35523 13.1821 5.47957C13.2934 5.60391 13.3789 5.74901 13.4338 5.90653C13.4888 6.06405 13.512 6.23087 13.5023 6.39741C13.4925 6.56395 13.4499 6.72691 13.3769 6.87693C13.304 7.02695 13.2021 7.16106 13.0771 7.27155L7.53027 12.2362L22.3583 12.2362C22.694 12.2362 23.0159 12.3695 23.2533 12.6069C23.4906 12.8442 23.624 13.1661 23.624 13.5018Z" fill="white"/>
</svg>
