<svg width="40" height="40" viewBox="0 0 40 40" fill="none" xmlns="http://www.w3.org/2000/svg">
<path fill-rule="evenodd" clip-rule="evenodd" d="M11.6663 10C11.6663 9.55797 11.8419 9.13405 12.1545 8.82149C12.4671 8.50893 12.891 8.33333 13.333 8.33333H14.9997V10C14.9997 10.442 15.1753 10.866 15.4878 11.1785C15.8004 11.4911 16.2243 11.6667 16.6663 11.6667C17.1084 11.6667 17.5323 11.4911 17.8449 11.1785C18.1574 10.866 18.333 10.442 18.333 10V8.33333C18.333 7.44928 17.9818 6.60143 17.3567 5.97631C16.7316 5.35119 15.8837 5 14.9997 5H13.333C12.0069 5 10.7352 5.52678 9.79748 6.46447C8.85979 7.40215 8.33301 8.67392 8.33301 10V18.3333H6.66634C5.78229 18.3333 4.93444 18.6845 4.30932 19.3096C3.6842 19.9348 3.33301 20.7826 3.33301 21.6667V23.3333C3.33209 24.9639 3.73031 26.57 4.49293 28.0112C5.25554 29.4525 6.35936 30.6852 7.70801 31.6017L7.15468 32.155C6.99549 32.3087 6.86852 32.4927 6.78117 32.696C6.69383 32.8993 6.64785 33.118 6.64593 33.3393C6.644 33.5606 6.68617 33.7801 6.76997 33.9849C6.85377 34.1897 6.97753 34.3758 7.13402 34.5323C7.29051 34.6888 7.47659 34.8126 7.68142 34.8964C7.88625 34.9802 8.10571 35.0223 8.32701 35.0204C8.54831 35.0185 8.76701 34.9725 8.97035 34.8852C9.17369 34.7978 9.3576 34.6709 9.51134 34.5117L10.9713 33.0533C11.728 33.2367 12.5197 33.3333 13.333 33.3333H26.6663C27.4797 33.3333 28.2713 33.2367 29.028 33.0533L30.488 34.5117C30.8023 34.8153 31.2234 34.9833 31.6603 34.9795C32.0973 34.9757 32.5154 34.8004 32.8244 34.4914C33.1334 34.1824 33.3087 33.7643 33.3125 33.3273C33.3163 32.8903 33.1483 32.4693 32.8447 32.155L32.2913 31.6017C33.64 30.6852 34.7438 29.4525 35.5064 28.0112C36.269 26.57 36.6673 24.9639 36.6663 23.3333V21.6667C36.6663 20.7826 36.3152 19.9348 35.69 19.3096C35.0649 18.6845 34.2171 18.3333 33.333 18.3333H11.6663V10ZM6.66634 21.6667H33.333V23.3333C33.333 25.1014 32.6306 26.7971 31.3804 28.0474C30.1301 29.2976 28.4345 30 26.6663 30H13.333C11.5649 30 9.86921 29.2976 8.61896 28.0474C7.36872 26.7971 6.66634 25.1014 6.66634 23.3333V21.6667Z" fill="white"/>
</svg>
