<svg width="33" height="33" viewBox="0 0 33 33" fill="none" xmlns="http://www.w3.org/2000/svg">
<path d="M3.07617 26.6652V19.6239C3.07932 18.5578 3.50425 17.5362 4.25814 16.7823C5.01203 16.0284 6.03362 15.6035 7.09978 15.6003H25.206C26.2722 15.6035 27.2937 16.0284 28.0476 16.7823C28.8015 17.5362 29.2265 18.5578 29.2296 19.6239V26.6652M24.2001 15.6003H6.09388V9.06196C6.09587 8.39562 6.36145 7.75714 6.83263 7.28596C7.3038 6.81479 7.94229 6.5492 8.60863 6.54721H23.6971C24.3635 6.5492 25.002 6.81479 25.4731 7.28596C25.9443 7.75714 26.2099 8.39562 26.2119 9.06196V15.6003H24.2001Z" stroke="white" stroke-width="2.0118" stroke-linecap="round" stroke-linejoin="round"/>
<path d="M3.07617 26.6652V26.1623C3.07733 25.7625 3.23667 25.3794 3.51939 25.0966C3.8021 24.8139 4.18521 24.6546 4.58502 24.6534H27.7208C28.1206 24.6546 28.5037 24.8139 28.7864 25.0966C29.0691 25.3794 29.2284 25.7625 29.2296 26.1623V26.6652M7.09978 15.6003V14.5944C7.10127 14.0613 7.31371 13.5505 7.69067 13.1735C8.06763 12.7965 8.57848 12.5841 9.11158 12.5826H14.1411C14.6742 12.5841 15.185 12.7965 15.562 13.1735C15.939 13.5505 16.1514 14.0613 16.1529 14.5944M16.1529 14.5944V15.6003M16.1529 14.5944C16.1544 14.0613 16.3668 13.5505 16.7438 13.1735C17.1207 12.7965 17.6316 12.5841 18.1647 12.5826H23.1942C23.7273 12.5841 24.2381 12.7965 24.6151 13.1735C24.9921 13.5505 25.2045 14.0613 25.206 14.5944V15.6003" stroke="white" stroke-width="2.0118" stroke-linecap="round" stroke-linejoin="round"/>
</svg>
