<svg width="31" height="32" viewBox="0 0 31 32" fill="none" xmlns="http://www.w3.org/2000/svg">
<path d="M2.76642 15.9935C2.76642 11.1887 2.76642 8.78567 4.25971 7.29365C5.75173 5.80035 8.15476 5.80035 12.9595 5.80035H18.0561C22.8609 5.80035 25.2639 5.80035 26.756 7.29365C28.2492 8.78567 28.2492 11.1887 28.2492 15.9935V18.5418C28.2492 23.3466 28.2492 25.7496 26.756 27.2416C25.2639 28.7349 22.8609 28.7349 18.0561 28.7349H12.9595C8.15476 28.7349 5.75173 28.7349 4.25971 27.2416C2.76642 25.7496 2.76642 23.3466 2.76642 18.5418V15.9935Z" stroke="white" stroke-width="1.91121"/>
<path d="M9.13687 5.80037V3.88916M21.8783 5.80037V3.88916M3.40323 12.1711H27.6119" stroke="white" stroke-width="1.91121" stroke-linecap="round"/>
<path d="M23.1524 22.3642C23.1524 22.7021 23.0182 23.0262 22.7792 23.2652C22.5403 23.5041 22.2162 23.6383 21.8783 23.6383C21.5403 23.6383 21.2163 23.5041 20.9773 23.2652C20.7384 23.0262 20.6041 22.7021 20.6041 22.3642C20.6041 22.0263 20.7384 21.7022 20.9773 21.4633C21.2163 21.2243 21.5403 21.0901 21.8783 21.0901C22.2162 21.0901 22.5403 21.2243 22.7792 21.4633C23.0182 21.7022 23.1524 22.0263 23.1524 22.3642ZM23.1524 17.2676C23.1524 17.6056 23.0182 17.9296 22.7792 18.1686C22.5403 18.4075 22.2162 18.5418 21.8783 18.5418C21.5403 18.5418 21.2163 18.4075 20.9773 18.1686C20.7384 17.9296 20.6041 17.6056 20.6041 17.2676C20.6041 16.9297 20.7384 16.6056 20.9773 16.3667C21.2163 16.1277 21.5403 15.9935 21.8783 15.9935C22.2162 15.9935 22.5403 16.1277 22.7792 16.3667C23.0182 16.6056 23.1524 16.9297 23.1524 17.2676ZM16.7817 22.3642C16.7817 22.7021 16.6475 23.0262 16.4085 23.2652C16.1696 23.5041 15.8455 23.6383 15.5076 23.6383C15.1696 23.6383 14.8455 23.5041 14.6066 23.2652C14.3676 23.0262 14.2334 22.7021 14.2334 22.3642C14.2334 22.0263 14.3676 21.7022 14.6066 21.4633C14.8455 21.2243 15.1696 21.0901 15.5076 21.0901C15.8455 21.0901 16.1696 21.2243 16.4085 21.4633C16.6475 21.7022 16.7817 22.0263 16.7817 22.3642ZM16.7817 17.2676C16.7817 17.6056 16.6475 17.9296 16.4085 18.1686C16.1696 18.4075 15.8455 18.5418 15.5076 18.5418C15.1696 18.5418 14.8455 18.4075 14.6066 18.1686C14.3676 17.9296 14.2334 17.6056 14.2334 17.2676C14.2334 16.9297 14.3676 16.6056 14.6066 16.3667C14.8455 16.1277 15.1696 15.9935 15.5076 15.9935C15.8455 15.9935 16.1696 16.1277 16.4085 16.3667C16.6475 16.6056 16.7817 16.9297 16.7817 17.2676ZM10.411 22.3642C10.411 22.7021 10.2767 23.0262 10.0378 23.2652C9.79885 23.5041 9.47477 23.6383 9.13684 23.6383C8.79892 23.6383 8.47484 23.5041 8.23589 23.2652C7.99694 23.0262 7.8627 22.7021 7.8627 22.3642C7.8627 22.0263 7.99694 21.7022 8.23589 21.4633C8.47484 21.2243 8.79892 21.0901 9.13684 21.0901C9.47477 21.0901 9.79885 21.2243 10.0378 21.4633C10.2767 21.7022 10.411 22.0263 10.411 22.3642ZM10.411 17.2676C10.411 17.6056 10.2767 17.9296 10.0378 18.1686C9.79885 18.4075 9.47477 18.5418 9.13684 18.5418C8.79892 18.5418 8.47484 18.4075 8.23589 18.1686C7.99694 17.9296 7.8627 17.6056 7.8627 17.2676C7.8627 16.9297 7.99694 16.6056 8.23589 16.3667C8.47484 16.1277 8.79892 15.9935 9.13684 15.9935C9.47477 15.9935 9.79885 16.1277 10.0378 16.3667C10.2767 16.6056 10.411 16.9297 10.411 17.2676Z" fill="white"/>
</svg>
