<svg width="151" height="19" viewBox="0 0 151 19" fill="none" xmlns="http://www.w3.org/2000/svg">
<path d="M0.721591 18V0.545454H3.88352V8.56534H4.09659L10.9062 0.545454H14.767L8.01705 8.37784L14.8267 18H11.0256L5.81818 10.517L3.88352 12.8011V18H0.721591ZM19.299 0.545454L23.8416 14.2841H24.0206L28.5547 0.545454H32.032L25.8786 18H21.9751L15.8303 0.545454H19.299ZM34.5334 18H31.1584L37.3033 0.545454H41.2067L47.3601 18H43.9851L39.3232 4.125H39.1868L34.5334 18ZM34.6442 11.1562H43.8487V13.696H34.6442V11.1562ZM55.5739 18H49.6591V0.545454H55.6932C57.4261 0.545454 58.9148 0.894886 60.1591 1.59375C61.4091 2.28693 62.3693 3.28409 63.0398 4.58523C63.7102 5.88636 64.0455 7.44318 64.0455 9.25568C64.0455 11.0739 63.7074 12.6364 63.0312 13.9432C62.3608 15.25 61.392 16.2528 60.125 16.9517C58.8636 17.6506 57.3466 18 55.5739 18ZM52.821 15.2642H55.4205C56.6364 15.2642 57.6506 15.0426 58.4631 14.5994C59.2756 14.1506 59.8864 13.483 60.2955 12.5966C60.7045 11.7045 60.9091 10.5909 60.9091 9.25568C60.9091 7.92045 60.7045 6.8125 60.2955 5.93182C59.8864 5.04545 59.2813 4.38352 58.4801 3.94602C57.6847 3.50284 56.696 3.28125 55.5142 3.28125H52.821V15.2642ZM67.0497 18V0.545454H73.5952C74.9361 0.545454 76.0611 0.778409 76.9702 1.24432C77.8849 1.71023 78.5753 2.36364 79.0412 3.20454C79.5128 4.03977 79.7486 5.0142 79.7486 6.12784C79.7486 7.24716 79.5099 8.21875 79.0327 9.04261C78.5611 9.8608 77.8651 10.4943 76.9446 10.9432C76.0241 11.3864 74.8935 11.608 73.5526 11.608H68.8906V8.98295H73.1264C73.9105 8.98295 74.5526 8.875 75.0526 8.65909C75.5526 8.4375 75.9219 8.11648 76.1605 7.69602C76.4048 7.26989 76.527 6.74716 76.527 6.12784C76.527 5.50852 76.4048 4.98011 76.1605 4.54261C75.9162 4.09943 75.544 3.7642 75.044 3.53693C74.544 3.30398 73.8991 3.1875 73.1094 3.1875H70.2116V18H67.0497ZM76.0668 10.0909L80.3878 18H76.8594L72.6151 10.0909H76.0668ZM84.9006 18H81.5256L87.6705 0.545454H91.5739L97.7273 18H94.3523L89.6903 4.125H89.554L84.9006 18ZM85.0114 11.1562H94.2159V13.696H85.0114V11.1562ZM97.1499 3.19602V0.545454H111.076V3.19602H105.681V18H102.545V3.19602H97.1499ZM114.705 18.1875C114.188 18.1875 113.744 18.0057 113.375 17.642C113.006 17.2784 112.824 16.8352 112.83 16.3125C112.824 15.8011 113.006 15.3636 113.375 15C113.744 14.6364 114.188 14.4545 114.705 14.4545C115.205 14.4545 115.639 14.6364 116.009 15C116.384 15.3636 116.574 15.8011 116.58 16.3125C116.574 16.6591 116.483 16.9744 116.307 17.2585C116.136 17.5426 115.909 17.7699 115.625 17.9403C115.347 18.1051 115.04 18.1875 114.705 18.1875ZM119.901 18V0.545454H123.063V8.56534H123.276L130.086 0.545454H133.947L127.197 8.37784L134.006 18H130.205L124.998 10.517L123.063 12.8011V18H119.901ZM146.899 6.11932C146.757 5.65909 146.561 5.24716 146.311 4.88352C146.067 4.5142 145.771 4.19886 145.425 3.9375C145.084 3.67614 144.692 3.48011 144.249 3.34943C143.805 3.21307 143.322 3.14489 142.8 3.14489C141.862 3.14489 141.027 3.38068 140.294 3.85227C139.561 4.32386 138.984 5.01704 138.564 5.93182C138.149 6.84091 137.942 7.94886 137.942 9.25568C137.942 10.5739 138.149 11.6903 138.564 12.6051C138.979 13.5199 139.555 14.2159 140.294 14.6932C141.033 15.1648 141.891 15.4006 142.868 15.4006C143.754 15.4006 144.521 15.2301 145.169 14.8892C145.822 14.5483 146.325 14.0653 146.678 13.4403C147.03 12.8097 147.206 12.071 147.206 11.2244L147.922 11.3352H143.183V8.86364H150.266V10.9602C150.266 12.4545 149.947 13.7472 149.311 14.8381C148.675 15.929 147.8 16.7699 146.686 17.3608C145.572 17.946 144.294 18.2386 142.851 18.2386C141.243 18.2386 139.831 17.8778 138.615 17.1562C137.405 16.429 136.459 15.3977 135.777 14.0625C135.101 12.7216 134.763 11.1307 134.763 9.28977C134.763 7.88068 134.962 6.62216 135.359 5.5142C135.763 4.40625 136.325 3.46591 137.047 2.69318C137.768 1.91477 138.615 1.32386 139.587 0.920454C140.558 0.511363 141.615 0.306818 142.757 0.306818C143.723 0.306818 144.624 0.448863 145.459 0.732954C146.294 1.01136 147.036 1.40909 147.683 1.92614C148.337 2.44318 148.874 3.05682 149.294 3.76704C149.714 4.47727 149.99 5.26136 150.121 6.11932H146.899Z" fill="white"/>
</svg>
