<svg width="32" height="32" viewBox="0 0 32 32" fill="none" xmlns="http://www.w3.org/2000/svg">
<circle cx="16" cy="16" r="16" fill="#DC2215"/>
<path d="M20.458 22.2293H12.5413C10.1663 22.2293 8.58301 21.0418 8.58301 18.271V12.7293C8.58301 9.9585 10.1663 8.771 12.5413 8.771H20.458C22.833 8.771 24.4163 9.9585 24.4163 12.7293V18.271C24.4163 21.0418 22.833 22.2293 20.458 22.2293Z" stroke="white" stroke-width="1.1875" stroke-miterlimit="10" stroke-linecap="round" stroke-linejoin="round"/>
<path d="M20.4587 13.125L17.9807 15.1042C17.1653 15.7533 15.8274 15.7533 15.012 15.1042L12.542 13.125" stroke="white" stroke-width="1.1875" stroke-miterlimit="10" stroke-linecap="round" stroke-linejoin="round"/>
<path d="M20.458 22.2293H12.5413C10.1663 22.2293 8.58301 21.0418 8.58301 18.271V12.7293C8.58301 9.9585 10.1663 8.771 12.5413 8.771H20.458C22.833 8.771 24.4163 9.9585 24.4163 12.7293V18.271C24.4163 21.0418 22.833 22.2293 20.458 22.2293Z" stroke="white" stroke-width="1.1875" stroke-miterlimit="10" stroke-linecap="round" stroke-linejoin="round"/>
<path d="M20.4587 13.125L17.9807 15.1042C17.1653 15.7533 15.8274 15.7533 15.012 15.1042L12.542 13.125" stroke="white" stroke-width="1.1875" stroke-miterlimit="10" stroke-linecap="round" stroke-linejoin="round"/>
</svg>
