<svg width="49" height="49" viewBox="0 0 49 49" fill="none" xmlns="http://www.w3.org/2000/svg">
<path d="M36.7503 4.10379L12.2503 4.08337C11.1674 4.08337 10.1287 4.51358 9.36297 5.27935C8.5972 6.04513 8.16699 7.08374 8.16699 8.16671V40.8334C8.16699 43.0792 10.0045 44.9167 12.2503 44.9167H36.7503C38.9962 44.9167 40.8337 43.0792 40.8337 40.8334V8.16671C40.8337 5.90046 38.9962 4.10379 36.7503 4.10379ZM34.7087 40.8334H14.292C13.1691 40.8334 12.2503 39.9146 12.2503 38.7917V24.4592C12.2503 23.3363 13.1691 22.4175 14.292 22.4175H34.7087C35.8316 22.4175 36.7503 23.3363 36.7503 24.4592V38.7917C36.7503 39.9146 35.8316 40.8334 34.7087 40.8334ZM34.7087 18.375H14.292C13.1691 18.375 12.2503 17.4563 12.2503 16.3334V10.2084C12.2503 9.08546 13.1691 8.16671 14.292 8.16671H34.7087C35.8316 8.16671 36.7503 9.08546 36.7503 10.2084V16.3334C36.7503 17.4563 35.8316 18.375 34.7087 18.375ZM18.3753 10.2084C19.4982 10.2084 20.417 11.1271 20.417 12.25V14.2917C20.417 15.4146 19.4982 16.3334 18.3753 16.3334C17.2524 16.3334 16.3337 15.4146 16.3337 14.2917V12.25C16.3337 11.1271 17.2524 10.2084 18.3753 10.2084ZM18.3753 24.5C19.4982 24.5 20.417 25.4188 20.417 26.5417V32.6667C20.417 33.7896 19.4982 34.7084 18.3753 34.7084C17.2524 34.7084 16.3337 33.7896 16.3337 32.6667V26.5417C16.3337 25.4188 17.2524 24.5 18.3753 24.5Z" fill="white"/>
</svg>
