<svg width="31" height="31" viewBox="0 0 31 31" fill="none" xmlns="http://www.w3.org/2000/svg">
<circle cx="15.2766" cy="15.2766" r="14.9937" fill="#414141" stroke="#9D9D9D" stroke-width="0.565799"/>
<path d="M15.2771 9.61862C18.402 9.61862 20.9351 12.1517 20.9351 15.2766C20.9351 18.4015 18.402 20.9346 15.2771 20.9346C14.2772 20.9363 13.2949 20.6717 12.4312 20.1679L9.62141 20.9346L10.3864 18.1237C9.88222 17.2597 9.6174 16.277 9.61915 15.2766C9.61915 12.1517 12.1522 9.61862 15.2771 9.61862ZM13.3489 12.6174L13.2357 12.6219C13.1626 12.6269 13.0911 12.6461 13.0253 12.6785C12.9639 12.7133 12.9079 12.7567 12.8589 12.8075C12.791 12.8714 12.7525 12.9268 12.7112 12.9806C12.502 13.2527 12.3893 13.5867 12.391 13.93C12.3921 14.2072 12.4646 14.4771 12.5777 14.7295C12.8091 15.2398 13.1899 15.7802 13.6923 16.2809C13.8134 16.4014 13.9322 16.5225 14.0601 16.6351C14.6844 17.1847 15.4284 17.5811 16.2328 17.7927L16.5541 17.8419C16.6588 17.8476 16.7635 17.8397 16.8687 17.8346C17.0335 17.8259 17.1943 17.7813 17.34 17.7039C17.4141 17.6656 17.4864 17.6241 17.5567 17.5794C17.5567 17.5794 17.5807 17.5632 17.6275 17.5285C17.7038 17.4719 17.7508 17.4317 17.8142 17.3655C17.8617 17.3165 17.9013 17.2595 17.933 17.1947C17.9771 17.1024 18.0213 16.9265 18.0394 16.7799C18.0529 16.6679 18.049 16.6068 18.0473 16.5689C18.045 16.5084 17.9947 16.4455 17.9398 16.419L17.6105 16.2713C17.6105 16.2713 17.1182 16.0568 16.8172 15.9199C16.7857 15.9062 16.752 15.8983 16.7177 15.8967C16.6789 15.8927 16.6398 15.897 16.6029 15.9094C16.566 15.9218 16.5322 15.942 16.5038 15.9686C16.501 15.9674 16.463 15.9997 16.054 16.4953C16.0305 16.5269 15.9982 16.5507 15.9611 16.5638C15.924 16.5769 15.8839 16.5787 15.8458 16.5689C15.8089 16.5591 15.7728 16.5466 15.7377 16.5315C15.6675 16.5021 15.6432 16.4908 15.5951 16.4704C15.2703 16.3289 14.9696 16.1375 14.704 15.9029C14.6327 15.8407 14.5665 15.7728 14.4986 15.7072C14.276 15.494 14.082 15.2528 13.9215 14.9897L13.8881 14.936C13.8645 14.8997 13.8451 14.8608 13.8304 14.82C13.8089 14.7368 13.8649 14.6701 13.8649 14.6701C13.8649 14.6701 14.0024 14.5196 14.0663 14.4381C14.1286 14.3589 14.1812 14.2819 14.2151 14.2271C14.2819 14.1196 14.3028 14.0092 14.2678 13.9238C14.1093 13.5368 13.9456 13.1518 13.7766 12.769C13.7433 12.6932 13.6442 12.6389 13.5543 12.6281C13.5237 12.6243 13.4932 12.6213 13.4626 12.6191C13.3866 12.6147 13.3105 12.6155 13.2346 12.6213L13.3489 12.6174Z" fill="white"/>
</svg>
