<svg width="39" height="38" viewBox="0 0 39 38" fill="none" xmlns="http://www.w3.org/2000/svg">
<g clip-path="url(#clip0_60_1129)">
<path d="M17.6757 10.3604C17.4925 9.83999 17.1524 9.38921 16.7022 9.07029C16.2519 8.75136 15.7138 8.58 15.1621 8.57985H13.0963C12.5103 8.58149 11.9454 8.79927 11.51 9.19147C11.0745 9.58367 10.7991 10.1227 10.7363 10.7054C10.6736 11.2881 10.828 11.8734 11.17 12.3493C11.5121 12.8252 12.0176 13.1582 12.5899 13.2845L15.7299 13.9722C16.3724 14.1125 16.9404 14.4853 17.3246 15.0189C17.7089 15.5526 17.8823 16.2095 17.8115 16.8633C17.7408 17.5171 17.4308 18.1217 16.9412 18.5608C16.4517 18.9999 15.8171 19.2425 15.1594 19.242H13.3815C12.8304 19.2423 12.2928 19.0717 11.8427 18.7538C11.3925 18.4358 11.052 17.9862 10.8679 17.4668M14.2745 8.57985V5.91431M14.2745 21.9076V19.242M19.3577 36.4801V22.486C19.3577 21.6023 19.7087 20.7548 20.3336 20.13C20.9584 19.5051 21.8059 19.1541 22.6896 19.1541C23.5733 19.1541 24.4208 19.5051 25.0456 20.13C25.6705 20.7548 26.0215 21.6023 26.0215 22.486V29.8162H31.3526C32.7665 29.8162 34.1225 30.3779 35.1223 31.3777C36.122 32.3774 36.6837 33.7334 36.6837 35.1473V36.4801" stroke="white" stroke-width="1.58798" stroke-linecap="round" stroke-linejoin="round"/>
<path d="M14.2771 25.9912C11.8178 25.9908 9.41722 25.2397 7.39631 23.8383C5.3754 22.4369 3.83047 20.4519 2.96808 18.1488C2.1057 15.8456 1.96696 13.3341 2.57042 10.95C3.17387 8.56591 4.49076 6.42284 6.34502 4.80734C8.19927 3.19184 10.5025 2.1809 12.9468 1.90968C15.3911 1.63846 17.8599 2.1199 20.0232 3.28961C22.1865 4.45933 23.9412 6.26158 25.0526 8.45541C26.164 10.6492 26.5792 13.1301 26.2427 15.5662" stroke="white" stroke-width="1.58798" stroke-linecap="round"/>
</g>
<defs>
<clipPath id="clip0_60_1129">
<rect width="37.3176" height="37.3176" fill="white" transform="translate(0.78125 0.497864)"/>
</clipPath>
</defs>
</svg>
