<svg width="28" height="28" viewBox="0 0 28 28" fill="none" xmlns="http://www.w3.org/2000/svg">
<path d="M14.8999 7.01398C14.8999 6.78191 14.8077 6.55935 14.6436 6.39526C14.4795 6.23116 14.257 6.13898 14.0249 6.13898C13.7929 6.13898 13.5703 6.23116 13.4062 6.39526C13.2421 6.55935 13.1499 6.78191 13.1499 7.01398V12.5064C12.819 12.6986 12.5607 12.9946 12.4151 13.3485C12.2694 13.7024 12.2446 14.0945 12.3443 14.464C12.4441 14.8334 12.6629 15.1597 12.9669 15.3922C13.2709 15.6247 13.6431 15.7504 14.0258 15.75C14.3443 15.75 14.6435 15.6642 14.8999 15.5146L18.1103 17.3687C18.3112 17.4829 18.549 17.513 18.772 17.4525C18.995 17.392 19.185 17.2457 19.3005 17.0456C19.4161 16.8455 19.4478 16.6078 19.3887 16.3844C19.3296 16.161 19.1846 15.9701 18.9853 15.8532L15.7653 13.9947C15.763 13.6923 15.6818 13.3958 15.5299 13.1343C15.378 12.8729 15.1606 12.6555 14.899 12.5037L14.8999 7.01398Z" fill="white"/>
<path d="M26.25 14C26.25 7.2345 20.7655 1.75 14 1.75C7.2345 1.75 1.75 7.2345 1.75 14C1.75 20.7655 7.2345 26.25 14 26.25C20.7655 26.25 26.25 20.7655 26.25 14ZM23.625 14C23.625 19.3156 19.3156 23.625 14 23.625C8.68438 23.625 4.375 19.3156 4.375 14C4.375 8.68438 8.68438 4.375 14 4.375C19.3156 4.375 23.625 8.68438 23.625 14Z" fill="white"/>
</svg>
