<svg width="165" height="77" viewBox="0 0 165 77" fill="none" xmlns="http://www.w3.org/2000/svg">
<rect width="165" height="76.8848" fill="#29292B"/>
<path d="M85.8471 33.9791H85.8582M83.0575 48.4849H75.8045C74.9167 48.4849 74.0653 48.1323 73.4375 47.5045C72.8097 46.8767 72.457 46.0252 72.457 45.1374V31.7474C72.457 30.8596 72.8097 30.0081 73.4375 29.3803C74.0653 28.7525 74.9167 28.3999 75.8045 28.3999H89.1946C90.0824 28.3999 90.9339 28.7525 91.5616 29.3803C92.1894 30.0081 92.5421 30.8596 92.5421 31.7474V39.0003" stroke="white" stroke-width="1.27524" stroke-linecap="round" stroke-linejoin="round"/>
<path d="M72.457 42.9057L78.0362 37.3266C79.0717 36.3301 80.3482 36.3301 81.3837 37.3266L85.2892 41.232" stroke="white" stroke-width="1.27524" stroke-linecap="round" stroke-linejoin="round"/>
<path d="M84.7324 40.6741L85.8483 39.5582C86.6059 38.8296 87.4919 38.6332 88.3187 38.9713M90.3116 49.6008V42.9058M90.3116 42.9058L93.6591 46.2533M90.3116 42.9058L86.9641 46.2533" stroke="white" stroke-width="1.27524" stroke-linecap="round" stroke-linejoin="round"/>
</svg>
