<svg width="37" height="36" viewBox="0 0 37 36" fill="none" xmlns="http://www.w3.org/2000/svg">
<g clip-path="url(#clip0_303_3032)">
<path d="M20 4.5C20.3823 4.50042 20.75 4.64682 21.0281 4.90927C21.3061 5.17173 21.4734 5.53043 21.4958 5.91209C21.5182 6.29375 21.394 6.66957 21.1486 6.96275C20.9032 7.25593 20.5551 7.44434 20.1755 7.4895L20 7.5H8V28.5H29V16.5C29.0004 16.1177 29.1468 15.75 29.4093 15.4719C29.6717 15.1939 30.0304 15.0266 30.4121 15.0042C30.7938 14.9818 31.1696 15.106 31.4627 15.3514C31.7559 15.5968 31.9443 15.9449 31.9895 16.3245L32 16.5V28.5C32.0002 29.2569 31.7144 29.9858 31.1998 30.5408C30.6851 31.0958 29.9797 31.4357 29.225 31.4925L29 31.5H8C7.24314 31.5002 6.51415 31.2144 5.95918 30.6998C5.40421 30.1851 5.06427 29.4797 5.0075 28.725L5 28.5V7.5C4.99976 6.74314 5.28561 6.01415 5.80025 5.45918C6.31488 4.90421 7.02027 4.56426 7.775 4.5075L8 4.5H20ZM29.3645 5.0145C29.6344 4.74548 29.9967 4.58929 30.3776 4.57766C30.7585 4.56603 31.1296 4.69982 31.4154 4.95187C31.7013 5.20392 31.8805 5.55533 31.9166 5.93471C31.9527 6.3141 31.8431 6.69301 31.61 6.9945L31.4855 7.137L16.6355 21.9855C16.3656 22.2545 16.0033 22.4107 15.6224 22.4223C15.2415 22.434 14.8704 22.3002 14.5846 22.0481C14.2987 21.7961 14.1195 21.4447 14.0834 21.0653C14.0473 20.6859 14.1569 20.307 14.39 20.0055L14.5145 19.8645L29.3645 5.0145Z" fill="white"/>
</g>
<defs>
<clipPath id="clip0_303_3032">
<rect width="36" height="36" fill="white" transform="translate(0.5)"/>
</clipPath>
</defs>
</svg>
