<svg width="9" height="15" viewBox="0 0 9 15" fill="none" xmlns="http://www.w3.org/2000/svg">
<path d="M8.76738 7.00125L0.243908 0.0337945C0.221635 0.0154432 0.194869 0.00403871 0.166683 0.000890585C0.138497 -0.00225754 0.110034 0.0029784 0.084563 0.0159972C0.0590921 0.029016 0.0376465 0.0492897 0.0226885 0.0744898C0.00773064 0.0996898 -0.000132753 0.128794 1.69567e-06 0.158461L1.69567e-06 1.6881C1.69567e-06 1.78506 0.0434889 1.87806 0.115337 1.93743L6.92202 7.49992L0.115337 13.0624C0.0415982 13.1218 1.69567e-06 13.2148 1.69567e-06 13.3117L1.69567e-06 14.8414C1.69567e-06 14.974 0.145589 15.0472 0.243908 14.966L8.76738 7.99858C8.83983 7.93944 8.89843 7.86379 8.93874 7.77738C8.97905 7.69097 9 7.59608 9 7.49992C9 7.40376 8.97905 7.30887 8.93874 7.22246C8.89843 7.13605 8.83983 7.06039 8.76738 7.00125Z" fill="#606060"/>
</svg>
