<svg width="38" height="38" viewBox="0 0 38 38" fill="none" xmlns="http://www.w3.org/2000/svg">
<g clip-path="url(#clip0_15_310)">
<path d="M6.15758 6.27864L6.15745 6.27877C2.76949 9.66688 0.865734 14.2618 0.864731 19.0532L6.15758 6.27864ZM6.15758 6.27864C9.54184 2.89212 14.1401 0.987534 18.9303 0.987534C23.7206 0.987534 28.3188 2.89212 31.7031 6.27864L31.7033 6.27882C35.0906 9.66555 36.996 14.2639 36.996 19.0532C36.996 23.8424 35.0906 28.4408 31.7033 31.8275L31.7031 31.8277C28.3188 35.2142 23.7206 37.1188 18.9303 37.1188C14.1401 37.1188 9.54184 35.2142 6.15758 31.8277L6.1574 31.8275M6.15758 6.27864L6.1574 31.8275M6.1574 31.8275C2.77014 28.4408 0.864764 23.8425 0.864731 19.0533L6.1574 31.8275Z" fill="url(#paint0_linear_15_310)" stroke="white" stroke-width="1.22067"/>
<path d="M8.70799 18.8559C14.1532 16.4841 17.7833 14.9203 19.5984 14.1647C24.7868 12.0074 25.8636 11.6327 26.5669 11.62C26.7215 11.6175 27.0659 11.6557 27.2906 11.8374C27.4773 11.9906 27.5298 12.1978 27.5561 12.3432C27.5794 12.4886 27.6115 12.8198 27.5853 13.0783C27.3051 16.0315 26.0883 23.1978 25.4697 26.5055C25.2099 27.905 24.6934 28.3742 24.1944 28.42C23.1089 28.5198 22.286 27.7033 21.2355 27.015C19.5926 25.9373 18.6646 25.2667 17.0684 24.2153C15.2241 23.0002 16.4206 22.3323 17.4711 21.2409C17.7454 20.9552 22.5253 16.6087 22.6157 16.2144C22.6274 16.1651 22.6391 15.9813 22.5282 15.8844C22.4202 15.7872 22.2597 15.8205 22.143 15.8467C21.9767 15.8841 19.3533 17.6198 14.2641 21.0535C13.52 21.5654 12.8459 21.8149 12.2389 21.8017C11.5736 21.7874 10.2896 21.4247 9.33538 21.1148C8.16813 20.7346 7.23725 20.5335 7.31896 19.8877C7.35982 19.5516 7.8238 19.2075 8.70799 18.8559Z" fill="white"/>
</g>
<defs>
<linearGradient id="paint0_linear_15_310" x1="1867.85" y1="0.377197" x2="1867.85" y2="3735.57" gradientUnits="userSpaceOnUse">
<stop stop-color="#2AABEE"/>
<stop offset="1" stop-color="#229ED9"/>
</linearGradient>
<clipPath id="clip0_15_310">
<rect width="37.3519" height="37.3519" fill="white" transform="translate(0.254395 0.377197)"/>
</clipPath>
</defs>
</svg>
