<svg width="39.185547" height="39.184814" viewBox="0 0 39.1855 39.1848" fill="none" xmlns="http://www.w3.org/2000/svg" xmlns:xlink="http://www.w3.org/1999/xlink">
	<desc>
			Created with Pixso.
	</desc>
	<defs>
		<clipPath id="clip284_2693">
			<rect id="tabler:photo-up" rx="-0.816350" width="37.552109" height="37.552109" transform="translate(0.816350 0.816350)" fill="white" fill-opacity="0"/>
		</clipPath>
	</defs>
	<rect id="tabler:photo-up" rx="-0.816350" width="37.552109" height="37.552109" transform="translate(0.816350 0.816350)" fill="#FFFFFF" fill-opacity="0"/>
	<g clip-path="url(#clip284_2693)">
		<path id="Vector" d="M24.49 13.06L24.5 13.06M20.4 34.28L9.79 34.28C8.49 34.28 7.25 33.77 6.33 32.85C5.41 31.93 4.89 30.68 4.89 29.38L4.89 9.79C4.89 8.49 5.41 7.25 6.33 6.33C7.25 5.41 8.49 4.89 9.79 4.89L29.38 4.89C30.68 4.89 31.93 5.41 32.85 6.33C33.77 7.25 34.28 8.49 34.28 9.79L34.28 20.4" stroke="#FFFFFF" stroke-opacity="1.000000" stroke-width="1.865943" stroke-linejoin="round"/>
		<path id="Vector" d="M4.89 26.12L13.06 17.95C14.57 16.5 16.44 16.5 17.96 17.95L23.67 23.67" stroke="#FFFFFF" stroke-opacity="1.000000" stroke-width="1.865943" stroke-linejoin="round" stroke-linecap="round"/>
		<path id="Vector" d="M22.85 22.85L24.49 21.22C25.59 20.15 26.89 19.87 28.1 20.36M31.02 35.91L31.02 26.12M35.91 31.02L31.02 26.12L26.12 31.02" stroke="#FFFFFF" stroke-opacity="1.000000" stroke-width="1.865943" stroke-linejoin="round"/>
	</g>
</svg>
